<?xml version="1.0" encoding="utf-8"?>
<!-- Generator: Adobe Illustrator 18.0.0, SVG Export Plug-In . SVG Version: 6.00 Build 0)  -->
<!DOCTYPE svg PUBLIC "-//W3C//DTD SVG 1.1//EN" "http://www.w3.org/Graphics/SVG/1.1/DTD/svg11.dtd">
<svg version="1.1" id="Calque_2" xmlns="http://www.w3.org/2000/svg" xmlns:xlink="http://www.w3.org/1999/xlink" x="0px" y="0px"
	 viewBox="0 0 640 640" enable-background="new 0 0 640 640" xml:space="preserve">
<path fill="#D0EBDF" stroke="#000000" stroke-width="3" stroke-miterlimit="10" d="M316,581.5c0,0-112.8,0-148.8,0
	c-83,0-46.9-98.8-46.9-98.8L248.5,211v-45l-25.3-21.5H315h6h92L387.5,166v45l129.8,271.8c0,0,37.8,98.8-45.2,98.8c-36,0-149,0-149,0
	H316z"/>
<path fill="#91FF85" d="M395,268.5l103.8,212.4c0,0,33.6,89.1-41.4,89.1c-32.5,0-134.7,0-134.7,0h-6.3c0,0-102,0-134.5,0
	c-75,0-41.5-89.1-41.5-89.1L244,268.6"/>
<path fill="#FFFFFF" d="M505,480.9L375,211.5V167l26-21h-29l-26,21v44.6l130,269.4c0,0,38,98.1-45,98.1c11.7,0,21.9,0,29,0
	C543,579,505,480.9,505,480.9z"/>
</svg>
